<svg width="114" height="51" viewBox="0 0 114 51" fill="none" xmlns="http://www.w3.org/2000/svg">
<g id="logo-white" clip-path="url(#clip0_11180_713)">
<path id="Vector" d="M59.4855 44.8457H61.5585L61.8614 47.7686H61.9131C61.9879 47.5248 62.0655 47.267 62.1698 47.0307L63.1393 44.8457H65.1902L65.2234 50.4115H63.2751L63.4847 47.3635H63.4478C63.3822 47.5479 63.3148 47.7398 63.228 47.9169L62.0322 50.4115H60.8558L60.5068 48.0569C60.4855 47.8205 60.4689 47.5989 60.4911 47.3635H60.4246C60.3747 47.585 60.3239 47.814 60.2667 48.0355L59.6563 50.4124H57.708L59.4837 44.8466L59.4855 44.8457Z" fill="white"/>
<path id="Vector_2" d="M67.385 50.4115H65.2529L68.0582 44.8457H70.2854L71.3842 50.4115H69.2521L69.1782 49.7181H67.6565L67.385 50.4115ZM69.0333 48.3961L68.9529 47.4144C68.9317 47.1781 68.9335 46.9343 68.9335 46.6988H68.8597L68.2244 48.3961H69.0333Z" fill="white"/>
<path id="Vector_3" d="M72.5344 44.8457H74.9684C76.2187 44.8457 77.1929 45.3769 76.9712 46.7794C76.8383 47.6212 76.4588 47.9753 75.6693 48.2265L75.6619 48.271C75.7524 48.3526 75.8632 48.4406 75.9481 48.6029L76.8687 50.4115H74.5455L73.9453 48.6251H73.9084L73.6267 50.4115H71.6562L72.5353 44.8457H72.5344ZM74.1152 47.3106H74.2546C74.5852 47.3106 74.9241 47.2587 74.9897 46.8453C75.0571 46.417 74.7644 46.3651 74.4181 46.3651H74.2639L74.1143 47.3097L74.1152 47.3106Z" fill="white"/>
<path id="Vector_4" d="M77.9671 44.8447H79.9302L79.5054 47.2586H79.5497C79.6301 47.0296 79.7861 46.8303 79.9283 46.631L81.1804 44.8447H83.379L81.2164 47.5534L82.6846 50.4095H80.3466L79.6568 48.727C79.5728 48.5128 79.4288 48.3061 79.4214 48.0772H79.3771L79.053 50.4095H77.0898L77.9689 44.8438L77.9671 44.8447Z" fill="white"/>
<path id="Vector_5" d="M83.8127 44.8457H87.5403L87.3003 46.3669H85.6012L85.5181 46.8981H87.0694L86.8404 48.3452H85.2891L85.2033 48.8912H86.9605L86.7204 50.4115H82.9336L83.8127 44.8457Z" fill="white"/>
<path id="Vector_6" d="M87.9006 44.8457H92.1352L91.8499 46.6543L90.7474 46.6033L90.1462 50.4115H88.1314L88.7335 46.6033L87.6152 46.6543L87.9006 44.8457Z" fill="white"/>
<path id="Vector_7" d="M92.5314 44.8457H94.5462L93.6672 50.4115H91.6523L92.5314 44.8457Z" fill="white"/>
<path id="Vector_8" d="M95.3048 44.8457H97.2384L98.5598 47.9317H98.6179L98.9365 44.8457H100.863L99.9836 50.4115H98.0575L96.7472 47.4886H96.689L96.352 50.4115H94.4258L95.3048 44.8457Z" fill="white"/>
<path id="Vector_9" d="M107.096 47.1337C106.938 48.0413 106.818 48.8023 106.052 49.5106C105.362 50.153 104.404 50.4997 103.543 50.4997C101.852 50.4997 100.65 49.4513 100.932 47.6658C101.218 45.8498 102.721 44.7578 104.464 44.7578C105.428 44.7578 106.675 45.2371 106.959 46.19L104.967 46.8834C104.857 46.6035 104.594 46.4552 104.27 46.4552C103.549 46.4552 103.054 47.0753 102.948 47.7465C102.851 48.3592 103.143 48.9349 103.797 48.9349C104.113 48.9349 104.541 48.7875 104.69 48.4473H103.778L103.986 47.1337H107.096Z" fill="white"/>
<path id="Vector_10" d="M6.56618 1.2207H15.6153C28.4171 1.2207 34.0452 9.30792 32.059 21.9384C29.0238 41.2164 16.6634 42.9889 9.82111 42.9889H0L6.56618 1.2207ZM12.8572 32.9067C17.9894 32.8511 19.8647 26.4251 20.5268 22.4927C21.2443 17.9504 21.3542 11.6347 16.2229 11.6347L12.8572 32.9067Z" fill="#EA1D2E"/>
<path id="Vector_11" d="M50.4885 0.5C61.9107 0.5 64.6144 11.9115 63.0142 22.1048C61.4139 32.2973 55.1238 43.7097 43.7016 43.7097C32.2793 43.7097 29.6311 32.2982 31.2313 22.1048C32.8306 11.9115 39.0662 0.5 50.4885 0.5ZM45.3563 33.1835C49.6048 33.1835 51.0951 24.7079 51.5365 22.1039C51.9225 19.4999 53.0813 11.0243 48.8328 11.0243C44.5843 11.0243 43.094 19.4999 42.708 22.1039C42.2666 24.7079 41.1078 33.1835 45.3563 33.1835Z" fill="#EA1D2E"/>
<path id="Vector_12" d="M59.2617 42.9898L65.8279 1.2207H76.0913C85.9133 1.2207 92.9763 4.43371 91.2662 15.4021C89.5561 26.2592 82.3823 29.5834 72.6702 29.3063L70.5187 42.9889H59.2617V42.9898ZM76.5327 10.1951L75.7053 10.2507L74.1605 19.8897C77.2502 20.0556 79.4026 18.3388 79.8993 15.2361C80.3407 12.5775 79.2927 10.0291 76.5336 10.1951" fill="#EA1D2E"/>
<path id="Vector_13" d="M93.0857 1.2207H113.999L112.455 11.0813H102.798L101.915 16.8973H110.578L108.978 26.7579H100.315L99.3213 33.1292H108.978L107.432 42.9898H86.5195L93.0857 1.2207Z" fill="#EA1D2E"/>
</g>
<defs>
<clipPath id="clip0_11180_713">
<rect width="114" height="50" fill="white" transform="translate(0 0.5)"/>
</clipPath>
</defs>
</svg>
